<svg id="Capa_1" enable-background="new 0 0 512.011 512.011" height="512" viewBox="0 0 512.011 512.011" width="512" xmlns="http://www.w3.org/2000/svg"><g><path d="m381.279 45.963-120-45c-1.941-.729-3.939-1.031-5.887-.95l5.887 119.046 120-45c5.845-2.197 9.727-7.793 9.727-14.048s-3.882-11.851-9.727-14.048z" fill="#ff9100"/><path d="m256.005.011c-8.291 0-15 6.709-15 15v151c0 8.291 6.709 15 15 15s15-6.709 15-15v-151c0-8.291-6.709-15-15-15z" fill="#873a62"/><path d="m271.005 166.011v-151c0-8.291-6.709-15-15-15v181c8.291 0 15-6.709 15-15z" fill="#6d1d40"/><path d="m106.005 271.011c-8.291 0-15-6.709-15-15v-30c0-8.291 6.709-15 15-15s15 6.709 15 15v30c0 8.291-6.709 15-15 15z" fill="#873a62"/><path d="m406.005 271.011c-8.291 0-15-6.709-15-15v-30c0-8.291 6.709-15 15-15s15 6.709 15 15v30c0 8.291-6.709 15-15 15z" fill="#6d1d40"/><path d="m477.706 486.51c-36.601-78.3-56.7-160.6-56.7-230.499 0-5.4-2.701-10.201-7.2-12.9l-150-90c-2.401-1.351-5.101-2.025-7.8-2.025-2.701 0-5.4.674-7.8 2.025l-150 90c-4.499 2.699-7.2 7.5-7.2 12.9 0 104.7-50.4 217-57.599 232.599-1.544 3.045-2.1 4.821-2.1 8.401h34.799 189.901 189.6 35.099c-.001-2.587 1.036-2.432-3-10.501z" fill="#ffe1ba"/><path d="m480.705 497.011c0-2.587 1.036-2.432-2.999-10.501-36.601-78.3-56.7-160.6-56.7-230.499 0-5.4-2.701-10.201-7.2-12.9l-150-90c-2.401-1.351-5.101-2.025-7.8-2.025v345.925h189.6z" fill="#ffbfab"/><path d="m256.005 225.711c-41.699 96.301-154.799 230.799-189.901 271.3h189.901 189.6c-34.2-37.5-149.399-170.801-189.6-271.3z" fill="#fabe2c"/><path d="m256.005 225.711v271.3h189.6c-34.2-37.5-149.399-170.801-189.6-271.3z" fill="#ff9100"/><path d="m256.005 331.011c-72.891 0-75 149.11-75 166h75 75c0-16.89-2.109-166-75-166z" fill="#873a62"/><path d="m256.005 331.011v166h75c0-16.89-2.109-166-75-166z" fill="#6d1d40"/><path d="m497.005 482.011h-241-241c-8.284 0-15 6.714-15 15 0 8.284 6.716 15 15 15h241 241c8.284 0 15-6.716 15-15 0-8.286-6.716-15-15-15z" fill="#c3ea21"/><path d="m512.005 497.011c0-8.286-6.716-15-15-15h-241v30h241c8.284 0 15-6.716 15-15z" fill="#9cdd05"/></g></svg>