<svg id="Capa_1" enable-background="new 0 0 512 512" height="512" viewBox="0 0 512 512" width="512" xmlns="http://www.w3.org/2000/svg"><g><path d="m406 142.5-45 217.2-45-103.7 45-194.5z" fill="#f96c38"/><path d="m361 61.5v298.2l-30 144.8-60-248.5 60-248.5z" fill="#fc8647"/><path d="m106 142.5 45-81h15l15-54h60l75 248.5-105 248.5h-30z" fill="#ffbc72"/><path d="m241 234.896v-227.396h30l15 39.324 15-39.324h30v497h-30l-30-37.676-30 37.676h-30v-217.676c0-22.159 12.084-41.537 30-51.928z" fill="#ffa352"/><path d="m166 225.824c-8.284 0-15-6.716-15-15v-149.324l30-54v203.324c0 8.284-6.716 15-15 15z" fill="#ffa352"/><path d="m286 226.824c-8.284 0-15-6.716-15-15v-204.324h30v204.324c0 8.284-6.716 15-15 15z" fill="#ffbc72"/><path d="m271 256.824c16.568 0 30 13.431 30 30v217.676h-60v-217.676c0-16.568 13.431-30 30-30z" fill="#fc8647"/><path d="m412.556 138.858-75-135c-1.323-2.381-3.832-3.858-6.556-3.858h-150c-2.724 0-5.233 1.477-6.556 3.858l-75 135c-.873 1.571-1.152 3.404-.788 5.164l75 362c.722 3.482 3.789 5.979 7.344 5.979h150c3.556 0 6.623-2.497 7.344-5.979l75-362c.364-1.76.085-3.593-.788-5.164zm-298.647 4.849 59.591-107.264v174.381c0 4.136-3.364 7.5-7.5 7.5s-7.5-3.364-7.5-7.5v-87.55c0-4.142-3.358-7.5-7.5-7.5s-7.5 3.358-7.5 7.5v87.55c0 12.407 10.093 22.5 22.5 22.5s22.5-10.093 22.5-22.5v-195.824h45v215.742c-18.61 12.486-30 33.588-30 56.082v210.176h-16.395zm210.986 353.293h-16.395v-210.176c0-20.678-16.822-37.5-37.5-37.5s-37.5 16.822-37.5 37.5v187.676c0 4.142 3.358 7.5 7.5 7.5s7.5-3.358 7.5-7.5v-187.676c0-12.407 10.093-22.5 22.5-22.5s22.5 10.093 22.5 22.5v210.176h-75v-210.176c0-18.633 10.063-36.044 26.263-45.44 2.313-1.342 3.737-3.813 3.737-6.488v-219.896h15v22.5c0 4.142 3.358 7.5 7.5 7.5s7.5-3.358 7.5-7.5v-22.5h15v196.824c0 4.136-3.364 7.5-7.5 7.5s-7.5-3.364-7.5-7.5v-144.324c0-4.142-3.358-7.5-7.5-7.5s-7.5 3.358-7.5 7.5v144.324c0 12.407 10.093 22.5 22.5 22.5s22.5-10.093 22.5-22.5v-196.824h18.087l71.504 128.707z"/><path d="m323.5 69.274v287.35c0 4.142 3.358 7.5 7.5 7.5s7.5-3.358 7.5-7.5v-287.35c0-4.142-3.358-7.5-7.5-7.5s-7.5 3.358-7.5 7.5z"/><path d="m361 222.105c4.142 0 7.5-3.358 7.5-7.5v-91.332c0-4.142-3.358-7.5-7.5-7.5s-7.5 3.358-7.5 7.5v91.332c0 4.143 3.358 7.5 7.5 7.5z"/></g></svg>