<svg id="Capa_1" enable-background="new 0 0 512 512" height="512" viewBox="0 0 512 512" width="512" xmlns="http://www.w3.org/2000/svg"><g><g><g><path d="m512 256c0 109.77-69.09 203.4-166.16 239.78l-289.95-80.11c-34.98-43.78-55.89-99.28-55.89-159.67 0-46.21 12.25-89.56 33.68-126.99 44.11-77.07 127.15-129.01 222.32-129.01s178.21 51.94 222.32 129.01c21.43 37.43 33.68 80.78 33.68 126.99z" fill="#313b5a"/><path d="m512 256c0 109.77-69.09 203.4-166.16 239.78l-289.95-80.11c-34.98-43.78-55.89-99.28-55.89-159.67 0-46.21 12.25-89.56 33.68-126.99 10.86 18.96 24.07 36.4 39.25 51.92 26.29 26.92 58.48 48.06 94.48 61.33 27.6 10.19 57.45 15.75 88.59 15.75 95.16 0 178.2-51.93 222.32-129 21.43 37.43 33.68 80.78 33.68 126.99z" fill="#20273a"/></g></g><g><path d="m448.96 353.49c-.11.54-.22 1.08-.34 1.62-.32 1.51-.65 3.01-1.01 4.52-12.75 54.4-46.82 103.71-98.73 134.39-1.01.6-2.02 1.18-3.04 1.76-27.95 10.49-58.23 16.22-89.84 16.22-80.99 0-153.2-37.62-200.11-96.33-43.29-76.52-33.96-168.96 17.04-234.74 15.96-20.6 36.01-38.58 59.81-52.65 51.95-30.7 111.63-36.75 165.46-21.64 1.45.41 2.9.83 4.34 1.26.54.16 1.07.33 1.59.49-21.12 2.4-42.09 9.19-61.58 20.7-42.67 25.21-68.92 67.6-75.14 113.17-4.59 33.57 1.68 68.86 20.26 100.3 43.79 74.1 139.36 98.67 213.46 54.88 19.48-11.51 35.54-26.61 47.83-43.95z" fill="#ffe401"/><path d="m401.128 397.441c19.485-11.515 35.545-26.608 47.834-43.955-.113.542-.225 1.084-.342 1.629-.318 1.505-.655 3.009-1.01 4.511-12.687 46.749-42.348 88.305-86.543 114.422-92.265 54.524-212.941 21.086-269.535-74.681s-27.678-217.606 64.587-272.13c44.23-26.138 94.979-32.063 142.082-20.592 1.452.404 2.896.825 4.336 1.26.538.158 1.067.32 1.596.483-21.123 2.398-42.095 9.189-61.585 20.706-74.1 43.789-98.676 139.358-54.884 213.462 43.791 74.101 139.365 98.674 213.464 54.885z" fill="#fcbf10"/><path d="m401.128 397.441c19.485-11.515 35.545-26.608 47.834-43.955-.113.542-14.464 54.585-77.072 91.583-86.527 51.133-198.12 22.437-249.25-64.085-51.133-86.527-22.441-198.118 64.085-249.25 53.163-31.416 116.88-23.508 117.409-23.345-21.123 2.398-42.095 9.189-61.585 20.706-74.1 43.789-98.676 139.358-54.884 213.462 43.79 74.1 139.364 98.673 213.463 54.884z" fill="#ff9f00"/></g><g><path d="m372.368 261.72 7.415 43.252-38.843-20.422-38.844 20.422 7.419-43.252-31.424-30.632 43.427-6.312 19.422-39.349 19.421 39.349 43.431 6.312z" fill="#fcbf10"/><path d="m372.368 261.72 7.415 43.252-38.843-20.422v-99.123l19.421 39.349 43.431 6.312z" fill="#ff9f00"/></g></g></svg>