<?xml version="1.0" encoding="iso-8859-1"?>
<!-- Generator: Adobe Illustrator 19.0.0, SVG Export Plug-In . SVG Version: 6.00 Build 0)  -->
<svg version="1.1" id="Capa_1" xmlns="http://www.w3.org/2000/svg" xmlns:xlink="http://www.w3.org/1999/xlink" x="0px" y="0px"
	 viewBox="0 0 512 512" style="enable-background:new 0 0 512 512;" xml:space="preserve">
<g>
	<path style="fill:#C68F7B;" d="M160.083,234.057h191.836V117.376L222.99,42.939L94.067,117.376v71.058v83.738L160.083,234.057
		L160.083,234.057z M200.492,188.433V130.62h45v57.813H200.492z"/>
	<rect x="200.49" y="130.62" style="fill:#619DE5;" width="45" height="57.813"/>
	<polygon style="fill:#FC4F5C;" points="351.919,234.057 160.083,234.057 289.012,308.493 310.167,320.709 480.846,320.709 
		502,320.709 502,234.057 	"/>
	<path style="fill:#FCC8A4;" d="M289.012,308.493l-128.929-74.437l-66.016,38.115L31.16,308.493V469.06h257.852v-39.677V308.493
		L289.012,308.493z M160.085,334.686h40.001v40v40.001h-40.001h-40v-40.001v-40H160.085z"/>
	<g>
		<rect x="160.09" y="334.69" style="fill:#619DE5;" width="40" height="40"/>
		<rect x="120.08" y="334.69" style="fill:#619DE5;" width="40" height="40"/>
		<rect x="120.08" y="374.69" style="fill:#619DE5;" width="40" height="40"/>
		<rect x="160.09" y="374.69" style="fill:#619DE5;" width="40" height="40"/>
	</g>
	<polygon style="fill:#C68F7B;" points="289.012,308.493 289.012,429.384 480.846,429.384 480.846,359.688 480.846,320.709 
		310.167,320.709 	"/>
	<rect x="289.01" y="429.38" style="fill:#8E6A5C;" width="191.83" height="39.677"/>
</g>
<g>
	<path style="fill:#000001;" d="M200.086,324.686h-80.001c-5.522,0-10,4.477-10,10v80.001c0,5.523,4.478,10,10,10h80.001
		c5.523,0,10-4.477,10-10v-80.001C210.086,329.163,205.608,324.686,200.086,324.686z M190.086,364.686h-20.001v-20h20.001V364.686z
		 M150.085,344.686v20h-20v-20H150.085z M130.085,384.686h20v20.001h-20V384.686z M170.085,404.687v-20.001h20.001v20.001H170.085z"
		/>
	<path style="fill:#000001;" d="M502,224.057H361.919v-89.36l6.152,3.552c4.785,2.762,10.898,1.123,13.66-3.66
		s1.123-10.899-3.66-13.66L227.99,34.279c-3.094-1.787-6.906-1.786-10,0l-150.084,86.65c-4.783,2.761-6.422,8.877-3.66,13.66
		c1.853,3.208,5.213,5.002,8.67,5.001c1.696,0,3.416-0.432,4.99-1.341l6.161-3.557v131.706l-79.065,45.65
		c-4.783,2.761-6.422,8.878-3.66,13.66c2.762,4.783,8.878,6.423,13.66,3.661l6.158-3.556V469.06c0,5.523,4.478,10,10,10h257.852
		h191.834c5.522,0,10-4.477,10-10V330.709H502c5.522,0,10-4.477,10-10v-86.652C512,228.534,507.522,224.057,502,224.057z
		 M492,310.709h-39.997v-66.652H492V310.709z M392.003,310.709v-66.652h40v66.652H392.003z M332.004,310.709v-66.652h39.999v66.652
		H332.004z M272.006,287.129v-43.072h39.998v66.166L272.006,287.129z M197.403,244.057h54.603v31.525L197.403,244.057z
		 M104.067,198.433h31.034c5.522,0,10-4.477,10-10s-4.478-10-10-10h-31.034v-55.288L222.99,54.486l118.929,68.664v100.907H160.083
		c-0.404,0-0.8,0.031-1.191,0.078c-0.101,0.012-0.2,0.03-0.3,0.045c-0.309,0.046-0.611,0.106-0.91,0.179
		c-0.098,0.024-0.194,0.048-0.291,0.075c-0.362,0.101-0.718,0.218-1.063,0.358c-0.022,0.009-0.045,0.015-0.066,0.024
		c-0.38,0.158-0.746,0.34-1.101,0.542c-0.025,0.014-0.053,0.023-0.078,0.038l-51.016,29.455
		C104.067,254.851,104.067,198.433,104.067,198.433z M41.16,314.266l118.923-68.662l118.929,68.665v144.792H41.16V314.266z
		 M299.012,459.061v-19.677h171.834v19.677H299.012z M470.846,349.688H429.81c-5.522,0-10,4.477-10,10s4.478,10,10,10h41.036v49.696
		H299.012v-93.569l6.155,3.554c0.025,0.014,0.052,0.023,0.077,0.038c0.355,0.202,0.723,0.385,1.103,0.543
		c0.045,0.019,0.091,0.032,0.136,0.049c0.318,0.126,0.644,0.235,0.977,0.329c0.12,0.034,0.24,0.064,0.361,0.093
		c0.264,0.064,0.531,0.115,0.803,0.157c0.129,0.02,0.258,0.044,0.388,0.059c0.329,0.038,0.664,0.06,1.003,0.065
		c0.048,0.001,0.096,0.009,0.143,0.009c0.008,0,0.015-0.001,0.022-0.001h160.666L470.846,349.688L470.846,349.688z"/>
	<path style="fill:#000001;" d="M200.492,198.433h45c5.522,0,10-4.477,10-10V130.62c0-5.523-4.478-10-10-10h-45
		c-5.522,0-10,4.477-10,10v57.813C190.492,193.956,194.97,198.433,200.492,198.433z M210.492,140.621h25v37.813h-25V140.621z"/>
	<path style="fill:#000001;" d="M401.081,349.688h-0.236c-5.522,0-10,4.477-10,10s4.478,10,10,10h0.236c5.522,0,10-4.477,10-10
		C411.081,354.165,406.603,349.688,401.081,349.688z"/>
	<path style="fill:#000001;" d="M163.833,198.433h0.235c5.522,0,10-4.477,10-10s-4.478-10-10-10h-0.235c-5.522,0-10,4.477-10,10
		S158.31,198.433,163.833,198.433z"/>
</g>
<g>
</g>
<g>
</g>
<g>
</g>
<g>
</g>
<g>
</g>
<g>
</g>
<g>
</g>
<g>
</g>
<g>
</g>
<g>
</g>
<g>
</g>
<g>
</g>
<g>
</g>
<g>
</g>
<g>
</g>
</svg>
