<?xml version="1.0" encoding="iso-8859-1"?>
<!-- Generator: Adobe Illustrator 19.0.0, SVG Export Plug-In . SVG Version: 6.00 Build 0)  -->
<svg version="1.1" id="Capa_1" xmlns="http://www.w3.org/2000/svg" xmlns:xlink="http://www.w3.org/1999/xlink" x="0px" y="0px"
	 viewBox="0 0 496.485 496.485" style="enable-background:new 0 0 496.485 496.485;" xml:space="preserve">
<circle style="fill:#FDBE5E;" cx="248.242" cy="248.242" r="248.242"/>
<rect x="52.752" y="457.697" style="fill:#E1E6E9;" width="391.758" height="31.03"/>
<g>
	<path style="fill:#193651;" d="M443.733,496.485H52.752c-4.655,0-7.758-3.103-7.758-7.758v-31.03c0-4.655,3.103-7.758,7.758-7.758
		h391.758c4.655,0,7.758,3.103,7.758,7.758v31.03C451.491,493.382,448.388,496.485,443.733,496.485z M60.509,480.97h376.242v-15.515
		H60.509V480.97z"/>
	<path style="fill:#193651;" d="M470.885,496.485H25.6c-4.655,0-7.758-3.103-7.758-7.758s3.103-7.758,7.758-7.758h445.285
		c4.655,0,7.758,3.103,7.758,7.758S475.539,496.485,470.885,496.485z"/>
</g>
<rect x="89.988" y="362.279" style="fill:#2BA1DB;" width="317.285" height="95.418"/>
<path style="fill:#193651;" d="M406.497,465.455H89.988c-4.655,0-7.758-3.103-7.758-7.758v-95.418c0-4.655,3.103-7.758,7.758-7.758
	h317.285c4.655,0,7.758,3.103,7.758,7.758v95.418C414.255,462.352,411.152,465.455,406.497,465.455z M97.745,449.939h301.77v-79.903
	H97.745V449.939z"/>
<rect x="132.655" y="195.491" style="fill:#E1E6E9;" width="230.4" height="166.788"/>
<path style="fill:#193651;" d="M363.83,370.036H132.655c-4.655,0-7.758-3.103-7.758-7.758V195.491c0-4.655,3.103-7.758,7.758-7.758
	h230.4c4.655,0,7.758,3.103,7.758,7.758v166.788C371.588,366.158,367.709,370.036,363.83,370.036z M140.412,354.521h214.885V203.248
	H140.412V354.521z"/>
<rect x="163.685" y="226.521" style="fill:#FFFFFF;" width="168.339" height="104.727"/>
<path style="fill:#193651;" d="M376.242,203.248h-256c-4.655,0-7.758-3.103-7.758-7.758c0-4.655,3.103-7.758,7.758-7.758h256
	c4.655,0,7.758,3.103,7.758,7.758C384,200.145,380.121,203.248,376.242,203.248z"/>
<rect x="152.824" y="162.909" style="fill:#E1E6E9;" width="190.836" height="33.358"/>
<path style="fill:#193651;" d="M343.661,203.248H152.824c-4.655,0-7.758-3.103-7.758-7.758v-32.582c0-4.655,3.103-7.758,7.758-7.758
	h190.836c4.655,0,7.758,3.103,7.758,7.758v33.358C351.418,200.145,348.315,203.248,343.661,203.248z M160.582,187.733h175.321
	v-17.067H160.582V187.733z"/>
<rect x="190.061" y="120.242" style="fill:#FFFFFF;" width="115.588" height="41.891"/>
<path style="fill:#193651;" d="M306.424,170.667H190.061c-4.655,0-7.758-3.103-7.758-7.758v-41.891c0-4.655,3.103-7.758,7.758-7.758
	h115.588c4.655,0,7.758,3.103,7.758,7.758v41.891C314.182,166.788,310.303,170.667,306.424,170.667z M197.818,155.152h100.073
	v-26.376H197.818V155.152z"/>
<path style="fill:#E1E6E9;" d="M248.242,38.788c-20.17,0-36.461,16.291-36.461,36.461v44.994h72.921V75.248
	C284.703,55.079,268.412,38.788,248.242,38.788z"/>
<path style="fill:#193651;" d="M284.703,128h-72.921c-4.655,0-7.758-3.103-7.758-7.758V75.248c0-24.048,19.394-44.218,44.218-44.218
	s44.218,20.17,44.218,44.218v44.994C292.461,124.897,289.358,128,284.703,128z M219.539,112.485h57.406V75.248
	c0-15.515-13.188-28.703-28.703-28.703s-28.703,13.188-28.703,28.703V112.485z"/>
<rect x="114.812" y="387.103" style="fill:#FFFFFF;" width="266.861" height="44.994"/>
<path style="fill:#193651;" d="M414.255,370.036H82.23c-4.655,0-7.758-3.103-7.758-7.758s3.103-7.758,7.758-7.758h332.8
	c4.655,0,7.758,3.103,7.758,7.758S418.909,370.036,414.255,370.036z"/>
<path style="fill:#E1E6E9;" d="M248.242,403.394L248.242,403.394c-13.188,0-24.048,10.861-24.048,24.048v30.255h48.097v-30.255
	C272.291,414.255,261.43,403.394,248.242,403.394z"/>
<g>
	<path style="fill:#193651;" d="M272.291,465.455h-48.097c-4.655,0-7.758-3.103-7.758-7.758v-30.255
		c0-17.842,13.964-31.806,31.806-31.806s31.806,13.964,31.806,31.806v30.255C280.048,462.352,276.945,465.455,272.291,465.455z
		 M231.952,449.939h32.582v-22.497c0-9.309-6.982-16.291-16.291-16.291c-9.309,0-16.291,6.982-16.291,16.291V449.939z"/>
	<path style="fill:#193651;" d="M335.903,465.455c-4.655,0-7.758-3.103-7.758-7.758v-95.418c0-4.655,3.103-7.758,7.758-7.758
		c4.655,0,7.758,3.103,7.758,7.758v95.418C343.661,462.352,340.558,465.455,335.903,465.455z"/>
	<path style="fill:#193651;" d="M160.582,465.455c-4.655,0-7.758-3.103-7.758-7.758v-95.418c0-4.655,3.103-7.758,7.758-7.758
		c4.655,0,7.758,3.103,7.758,7.758v95.418C168.339,462.352,164.461,465.455,160.582,465.455z"/>
	<path style="fill:#193651;" d="M248.242,128c-4.655,0-7.758-3.103-7.758-7.758V79.127c0-4.655,3.103-7.758,7.758-7.758
		S256,74.473,256,79.127v41.115C256,124.897,252.897,128,248.242,128z"/>
	<path style="fill:#193651;" d="M248.242,46.545c-4.655,0-7.758-3.103-7.758-7.758V7.758c0-4.655,3.103-7.758,7.758-7.758
		S256,3.103,256,7.758v31.03C256,43.442,252.897,46.545,248.242,46.545z"/>
	<rect x="298.667" y="237.382" style="fill:#193651;" width="15.515" height="13.964"/>
	<rect x="259.879" y="237.382" style="fill:#193651;" width="15.515" height="13.964"/>
	<rect x="221.091" y="237.382" style="fill:#193651;" width="15.515" height="13.964"/>
	<rect x="182.303" y="237.382" style="fill:#193651;" width="15.515" height="13.964"/>
	<rect x="298.667" y="272.291" style="fill:#193651;" width="15.515" height="13.964"/>
	<rect x="259.879" y="272.291" style="fill:#193651;" width="15.515" height="13.964"/>
	<rect x="221.091" y="272.291" style="fill:#193651;" width="15.515" height="13.964"/>
	<rect x="182.303" y="272.291" style="fill:#193651;" width="15.515" height="13.964"/>
	<rect x="298.667" y="306.424" style="fill:#193651;" width="15.515" height="13.964"/>
	<rect x="259.879" y="306.424" style="fill:#193651;" width="15.515" height="13.964"/>
	<rect x="221.091" y="306.424" style="fill:#193651;" width="15.515" height="13.964"/>
	<rect x="182.303" y="306.424" style="fill:#193651;" width="15.515" height="13.964"/>
</g>
<g>
</g>
<g>
</g>
<g>
</g>
<g>
</g>
<g>
</g>
<g>
</g>
<g>
</g>
<g>
</g>
<g>
</g>
<g>
</g>
<g>
</g>
<g>
</g>
<g>
</g>
<g>
</g>
<g>
</g>
</svg>
