<svg height="480pt" viewBox="0 -28 480 480" width="480pt" xmlns="http://www.w3.org/2000/svg"><path d="m48 216h384v200h-384zm0 0" fill="#c1b2aa"/><path d="m128 48h224v368h-224zm0 0" fill="#d3c2b8"/><path d="m424 0v16l8 16v384h32v-384l8-16v-16zm0 0" fill="#d3c2b8"/><path d="m160 416v-210.398438c0-23.203124 11.199219-45.601562 30.398438-59.203124l49.601562-34.398438 49.601562 34.398438c19.199219 13.601562 30.398438 35.203124 30.398438 59.203124v210.398438" fill="#ad9890"/><path d="m464 32h-32l-8-16v-16h48v16zm0 0" fill="#56a3af"/><path d="m160 232h160v16h-160zm0 0" fill="#36607f"/><path d="m258.398438 289.601562-18.398438-9.601562-18.398438 9.601562c-8 4-13.601562 12-13.601562 21.597657v104.800781h64v-104.800781c0-9.597657-4.800781-17.597657-13.601562-21.597657zm0 0" fill="#4f4b47"/><path d="m400 216v-15.199219c0-5.601562-2.398438-10.402343-7.199219-13.601562l-16.800781-11.199219-16.800781 11.199219c-4.800781 3.199219-7.199219 8-7.199219 13.601562v15.199219zm0 0" fill="#469fab"/><path d="m384 240h16v80h-16zm0 0" fill="#4f4b47"/><path d="m384 336h16v56h-16zm0 0" fill="#4f4b47"/><path d="m128 48h224v32h-224zm0 0" fill="#469fab"/><path d="m8 0v16l8 16v384h32v-384l8-16v-16zm0 0" fill="#d3c2b8"/><path d="m16 32h32l8-16v-16h-48v16zm0 0" fill="#56a3af"/><path d="m80 216v-15.199219c0-5.601562 2.398438-10.402343 7.199219-13.601562l16.800781-11.199219 16.800781 11.199219c4.800781 3.199219 7.199219 8 7.199219 13.601562v15.199219zm0 0" fill="#469fab"/><path d="m80 240h16v80h-16zm0 0" fill="#4f4b47"/><path d="m80 336h16v56h-16zm0 0" fill="#4f4b47"/><path d="m0 408h480v16h-480zm0 0" fill="#a3a3a3"/></svg>